<svg data-name="Ebene 1" xmlns="http://www.w3.org/2000/svg" viewBox="0 0 343.36 97.89"> <defs> <style> .cls-1 { fill: #f60; } </style> </defs> <title>postcon-logo</title> <g> <g> <path d="M9.92,15A11.62,11.62,0,0,1,20,9.45C28,9.45,33.79,16.09,33.79,27S28.16,44.39,20.18,44.39a11.38,11.38,0,0,1-10.13-5.23V56.53H.33V17A56.41,56.41,0,0,0,0,10.13H9.59Zm7.11.94c-4.29,0-7.17,4-7.17,11s2.88,11,7.17,11,6.84-3.89,6.84-11-2.61-11-6.84-11"></path> <path d="M56.86,9.32C67.32,9.32,74.3,16.16,74.3,27s-7,17.64-17.43,17.64S39.5,37.68,39.5,27s7-17.63,17.37-17.63m0,28.7c4.83,0,7.44-3.76,7.44-11.13s-2.62-11.13-7.44-11.13-7.44,3.75-7.44,11.13S52,38,56.86,38"></path> <path d="M88.18,33.66c.13,3,1.81,4.43,5.43,4.43,3.22,0,5-1.47,5-3.82,0-3.29-3.28-3.49-8.65-5-7-1.88-10.26-4.49-10.26-9.72C79.73,13.88,85,9.32,94,9.32c7.78,0,12.47,3.69,12.47,9.39V19H97.9c-.34-2.61-1.88-3.89-4.69-3.89s-4.69,1.48-4.69,3.42c0,2.75,3.15,3,8.78,4.42,7.31,1.81,10.66,4.56,10.66,9.92,0,6.44-5.83,11.73-14.69,11.73-9.05,0-14.08-4-14.21-10.93Z"></path> <path d="M192.19,9.32c10.46,0,17.43,6.84,17.43,17.63s-7,17.64-17.43,17.64S174.82,37.68,174.82,27s7-17.63,17.37-17.63m0,28.7c4.83,0,7.44-3.76,7.44-11.13S197,15.76,192.19,15.76s-7.44,3.75-7.44,11.13S187.36,38,192.19,38"></path> <path d="M216.22,16.56c0-2.08-.13-4.22-.33-6.44h9.32l.2,5c2.55-4.09,5.9-5.83,10.86-5.83,7.51,0,11,4.22,11,12.81V43.79h-9.66V23.47c0-4.76-1.41-7-5.5-7-3.69,0-6.24,2.55-6.24,6.64V43.79h-9.66Z"></path> <polygon class="cls-1" points="258.61 43.8 333.65 43.8 335.78 36.33 258.61 36.33 258.61 43.8"></polygon> <polygon class="cls-1" points="258.61 30.7 337.36 30.7 339.55 23.22 258.61 23.22 258.61 30.7"></polygon> <polygon class="cls-1" points="258.6 17.59 341.12 17.59 343.36 10.12 258.6 10.12 258.6 17.59"></polygon> <path d="M161.59,31.79c-.46,3.93-2.93,6.23-5.45,6.23-4.49,0-6.63-3.75-6.63-11.46,0-7.17,2.36-11,6.74-11,2.4,0,4.65,1.57,5.24,5.2h9.31c-.54-7.14-6.26-11.44-14.59-11.44-10.43,0-16.82,6.71-16.82,17.44,0,11.4,7,17.83,16.15,17.83,8.39,0,14.95-4.68,15.29-12.8Z"></path> <path d="M111.43,16.76V10.13h6.37V3.62L127.52,0V10.13h7.78v6.64h-7.84V33.19c0,2.48,1.34,3.82,3.69,3.82a20.18,20.18,0,0,0,4.09-.47v6.91a38.32,38.32,0,0,1-8.58,1c-6.3,0-8.85-3-8.85-9.45V16.76Z"></path> </g> <g> <path d="M92.81,97.56V78.12h6.08a16.16,16.16,0,0,1,3.92.38,8.63,8.63,0,0,1,2.73,1.24,7.89,7.89,0,0,1,2.72,3.32,11.72,11.72,0,0,1,.92,4.82q0,4.77-2.6,7.23t-7.68,2.46ZM97,94.35H99a5.66,5.66,0,0,0,4.41-1.56q1.4-1.56,1.4-4.89t-1.4-5A5.6,5.6,0,0,0,99,81.31H97Z"></path> <path d="M112.2,81.56V78.12h3.94v3.44Zm0,2.45h3.94V97.56H112.2Z"></path> <path d="M131.16,93.32a4.49,4.49,0,0,1-1.71,3.35,6.5,6.5,0,0,1-4.11,1.2A6,6,0,0,1,120.69,96,7.34,7.34,0,0,1,119,90.92a7.72,7.72,0,0,1,1.7-5.35,6.14,6.14,0,0,1,4.81-1.89A5.56,5.56,0,0,1,130,85.52a7.78,7.78,0,0,1,1.58,5.21c0,.25,0,.43,0,.55s0,.23,0,.33h-8.74a4.94,4.94,0,0,0,.65,2.72,2.11,2.11,0,0,0,1.86.9,2.36,2.36,0,0,0,1.55-.47,2.56,2.56,0,0,0,.8-1.45Zm-8.24-4.21h4.64a3.65,3.65,0,0,0-.6-2.21,2.22,2.22,0,0,0-3.33,0A3.71,3.71,0,0,0,122.92,89.11Z"></path> <path d="M142,97.56V78.12h5.76q4.14,0,6,1.4A5.29,5.29,0,0,1,155.62,84a5.71,5.71,0,0,1-1.71,4.5,7.43,7.43,0,0,1-5.08,1.52h-2.89v7.5Zm3.94-10.77h2a4.62,4.62,0,0,0,2.77-.63,2.49,2.49,0,0,0,.82-2.1,2.44,2.44,0,0,0-.82-2.08,4.66,4.66,0,0,0-2.76-.63h-2Z"></path> <path d="M156.59,90.79a7,7,0,0,1,1.91-5.16,6.79,6.79,0,0,1,5.08-1.95,6.86,6.86,0,0,1,5.11,1.94,7.92,7.92,0,0,1,0,10.34,6.86,6.86,0,0,1-5.11,1.94,6.79,6.79,0,0,1-5.08-1.95A7,7,0,0,1,156.59,90.79Zm4,0a6,6,0,0,0,.76,3.34,2.76,2.76,0,0,0,4.47,0,7.7,7.7,0,0,0,0-6.69,2.77,2.77,0,0,0-4.47,0A6,6,0,0,0,160.59,90.76Z"></path> <path d="M172.53,93.49h3.67a1.75,1.75,0,0,0,.57,1.35,2.52,2.52,0,0,0,1.62.43,2.39,2.39,0,0,0,1.48-.41,1.35,1.35,0,0,0,.53-1.13q0-1.11-2.5-1.74l-1-.25a7.53,7.53,0,0,1-3.19-1.51,3.16,3.16,0,0,1-.95-2.41,3.55,3.55,0,0,1,1.58-3,6.89,6.89,0,0,1,4.17-1.16,6,6,0,0,1,3.67,1,3.28,3.28,0,0,1,1.35,2.76v.11h-3.45a1.77,1.77,0,0,0-.57-1.18,2,2,0,0,0-1.31-.39,2.27,2.27,0,0,0-1.38.38,1.19,1.19,0,0,0-.52,1q0,.95,2.61,1.56l.92.22a7.46,7.46,0,0,1,3.3,1.5,3.26,3.26,0,0,1,1,2.49,4.18,4.18,0,0,1-1.67,3.38,6.52,6.52,0,0,1-4.24,1.35,6.77,6.77,0,0,1-4.2-1.14A4,4,0,0,1,172.53,93.49Z"></path> <path d="M187.73,86.69h-2.57V84h2.57V81.39l3.92-1.45V84h3.12v2.68h-3.15v6.61a1.58,1.58,0,0,0,.38,1.15,1.45,1.45,0,0,0,1.09.4,6.94,6.94,0,0,0,.79,0q.41,0,.86-.14v2.78a17.54,17.54,0,0,1-1.75.3,15,15,0,0,1-1.7.1,3.57,3.57,0,0,1-2.71-.9,4.13,4.13,0,0,1-.85-2.89Z"></path> <path d="M205,97.56V86.71H203V84H205V81.39a3.43,3.43,0,0,1,1-2.72,4.61,4.61,0,0,1,3.11-.9l.82,0c.32,0,.84.07,1.55.15v2.73l-.49-.06-.42,0a1.84,1.84,0,0,0-1.29.4,1.54,1.54,0,0,0-.43,1.19V84h2.4v2.7h-2.4V97.56Z"></path> <path d="M226.08,84V94.94q0,.73,0,1.38t.09,1.25h-3.73l-.11-2a4.94,4.94,0,0,1-1.81,1.79,5.32,5.32,0,0,1-2.56.57,4.16,4.16,0,0,1-3.34-1.27,5.89,5.89,0,0,1-1.09-3.9V84h3.92v8.15a3.54,3.54,0,0,0,.52,2.18,2,2,0,0,0,1.69.65,2.37,2.37,0,0,0,1.81-.71,2.69,2.69,0,0,0,.67-1.92V84Zm-10-2.49V78.3h3v3.22Zm4.58,0V78.3h3v3.22Z"></path> <path d="M229.63,97.56V88.22q0-1.15,0-2.2t-.12-2h3.61l.15,2.43a3.73,3.73,0,0,1,1.64-1.89,5.6,5.6,0,0,1,2.8-.64h.12v3.56l-.53,0h-.32a3.6,3.6,0,0,0-2.42.75,2.6,2.6,0,0,0-.88,2.08v7.32Z"></path> <path d="M247.6,97.56V78.12h5.76q4.14,0,6,1.4A5.29,5.29,0,0,1,261.22,84a5.71,5.71,0,0,1-1.71,4.5,7.43,7.43,0,0,1-5.08,1.52h-2.89v7.5Zm3.94-10.77h2a4.62,4.62,0,0,0,2.77-.63,2.49,2.49,0,0,0,.82-2.1,2.44,2.44,0,0,0-.82-2.08,4.66,4.66,0,0,0-2.76-.63h-2Z"></path> <path d="M263.18,97.56V88.22q0-1.15,0-2.2T263,84h3.61l.14,2.43a3.73,3.73,0,0,1,1.64-1.89,5.6,5.6,0,0,1,2.8-.64h.12v3.56l-.53,0h-.32a3.6,3.6,0,0,0-2.42.75,2.6,2.6,0,0,0-.88,2.08v7.32Z"></path> <path d="M273,90.79a7,7,0,0,1,1.91-5.16,6.79,6.79,0,0,1,5.08-1.95A6.86,6.86,0,0,1,285,85.62,7.92,7.92,0,0,1,285,96a6.86,6.86,0,0,1-5.11,1.94,6.79,6.79,0,0,1-5.08-1.95A7,7,0,0,1,273,90.79Zm4,0a6,6,0,0,0,.76,3.34,2.76,2.76,0,0,0,4.47,0,7.7,7.7,0,0,0,0-6.69,2.77,2.77,0,0,0-4.47,0A6,6,0,0,0,276.95,90.76Z"></path> <path d="M290.18,97.56V86.71h-2.06V84h2.06V81.39a3.43,3.43,0,0,1,1-2.72,4.61,4.61,0,0,1,3.1-.9l.82,0c.32,0,.84.07,1.55.15v2.73l-.49-.06-.42,0a1.84,1.84,0,0,0-1.29.4A1.54,1.54,0,0,0,294,82.2V84h2.4v2.7H294V97.56Z"></path> <path d="M298.71,81.56V78.12h3.94v3.44Zm0,2.45h3.94V97.56h-3.94Z"></path> <path d="M305.2,93.49h3.67a1.75,1.75,0,0,0,.57,1.35,2.52,2.52,0,0,0,1.62.43,2.39,2.39,0,0,0,1.48-.41,1.35,1.35,0,0,0,.53-1.13q0-1.11-2.5-1.74l-1-.25a7.53,7.53,0,0,1-3.19-1.51,3.16,3.16,0,0,1-.95-2.41,3.55,3.55,0,0,1,1.58-3,6.89,6.89,0,0,1,4.17-1.16,6,6,0,0,1,3.67,1,3.28,3.28,0,0,1,1.35,2.76v.11h-3.45a1.76,1.76,0,0,0-.57-1.18,2,2,0,0,0-1.31-.39,2.28,2.28,0,0,0-1.38.38,1.19,1.19,0,0,0-.52,1q0,.95,2.61,1.56l.92.22a7.46,7.46,0,0,1,3.3,1.5,3.26,3.26,0,0,1,1,2.49,4.18,4.18,0,0,1-1.67,3.38,6.52,6.52,0,0,1-4.24,1.35,6.77,6.77,0,0,1-4.2-1.14A4,4,0,0,1,305.2,93.49Z"></path> <path d="M319.78,97.56V94h3.4v3.56Z"></path> </g> </g> </svg>
